<svg width="24" height="23" viewBox="0 0 24 23" fill="none" xmlns="http://www.w3.org/2000/svg">
<path d="M10.8975 0.920915C11.2073 0.0216435 12.4792 0.0219778 12.7886 0.921411L14.9109 7.09211C15.0473 7.4886 15.4165 7.75791 15.8357 7.76666L22.3294 7.90213C23.2748 7.92186 23.6672 9.12148 22.9162 9.69612L17.729 13.6648C17.3989 13.9174 17.2595 14.3478 17.3787 14.7459L19.2598 21.0282C19.5321 21.9374 18.5033 22.679 17.7268 22.1332L12.4186 18.4023C12.0737 18.1598 11.6138 18.1598 11.2688 18.4021L5.95639 22.1334C5.17968 22.679 4.15104 21.9369 4.42379 21.0277L6.30828 14.7464C6.4278 14.348 6.28825 13.9173 5.95784 13.6646L0.767537 9.69629C0.0161533 9.12181 0.408428 7.92183 1.35406 7.9021L7.84659 7.76665C8.26559 7.75791 8.63469 7.48883 8.7712 7.0926L10.8975 0.920915Z" fill="black"/>
</svg>
